<?xml version="1.0" standalone="no"?>
<!DOCTYPE svg PUBLIC "-//W3C//DTD SVG 20010904//EN"
 "http://www.w3.org/TR/2001/REC-SVG-20010904/DTD/svg10.dtd">
<svg version="1.0" xmlns="http://www.w3.org/2000/svg"
 width="700.000000pt" height="700.000000pt" viewBox="0 0 700.000000 700.000000"
 preserveAspectRatio="xMidYMid meet">
<metadata>
Created by potrace 1.11, written by Peter Selinger 2001-2013
</metadata>
<g transform="translate(0.000000,700.000000) scale(0.100000,-0.100000)"
fill="#000000" stroke="none">
<path d="M217 6950 c-100 -39 -180 -126 -206 -225 -8 -28 -10 -989 -8 -3250
l2 -3210 24 -45 c46 -87 112 -147 192 -176 40 -14 376 -15 3270 -15 2418 -1
3236 2 3269 11 89 24 167 91 209 180 l26 55 2 3210 c3 3128 2 3212 -16 3262
-34 94 -83 148 -171 191 l-55 27 -3245 2 c-3155 2 -3246 2 -3293 -17z"/>
</g>
</svg>
